<svg width="24" height="24" viewBox="0 0 24 24" fill="none" xmlns="http://www.w3.org/2000/svg">
<rect width="24" height="24" fill="#1E1E1E"/>
<g id="Nav-Bar">
<mask id="path-1-outside-1_0_1" maskUnits="userSpaceOnUse" x="-219.167" y="-13" width="375" height="73" fill="black">
<rect fill="white" x="-219.167" y="-13" width="375" height="73"/>
<path d="M-219.167 -12H155.833V60H-219.167V-12Z"/>
</mask>
<path d="M-219.167 -12H155.833V60H-219.167V-12Z" fill="white"/>
<path d="M-219.167 -12V-11.5H155.833V-12V-12.5H-219.167V-12Z" fill="#E6E6E6" mask="url(#path-1-outside-1_0_1)"/>
<g id="Frame 1171279382">
<g id="Frame 1171279380">
<g id="shopping-cart-01">
<g id="elements">
<path id="Icon" fill-rule="evenodd" clip-rule="evenodd" d="M1.74963 1.99994C1.74963 1.58573 2.08542 1.24994 2.49963 1.24994L3.43808 1.24994C4.69996 1.24994 5.79992 2.10876 6.10597 3.33297L6.10943 3.34681L6.61397 5.74995L19.4475 5.74995C19.9513 5.74988 20.415 5.74981 20.7854 5.80861C21.2001 5.87447 21.6325 6.03318 21.9384 6.45411C22.2329 6.8593 22.2705 7.31745 22.2416 7.73693C22.2144 8.1321 22.1167 8.61744 22.0053 9.17027L21.9959 9.21705C21.5904 11.2313 21.1913 13.1307 20.2529 14.5003C19.7667 15.21 19.1341 15.785 18.2925 16.1755C17.4595 16.5621 16.4608 16.75 15.2629 16.75L8.46238 16.75C7.64219 16.7529 6.92056 17.3798 6.77594 18.2499L17.4996 18.2499C18.7423 18.2499 19.7496 19.2573 19.7496 20.4999C19.7496 21.7426 18.7423 22.7499 17.4996 22.7499C16.257 22.7499 15.2496 21.7426 15.2496 20.4999C15.2496 20.237 15.2947 19.9845 15.3777 19.7499L12.6216 19.7499C12.7045 19.9845 12.7496 20.237 12.7496 20.4999C12.7496 21.7426 11.7423 22.7499 10.4996 22.7499C9.25699 22.7499 8.24963 21.7426 8.24963 20.4999C8.24963 20.237 8.29475 19.9845 8.37766 19.7499L6.41106 19.7499C5.74106 19.7499 5.24963 19.1931 5.24963 18.5714C5.24963 17.2431 6.01426 16.0714 7.13774 15.5449L5.28957 6.74206C5.27039 6.6858 5.25771 6.62654 5.25243 6.56516L4.64764 3.68456C4.5043 3.13461 4.00746 2.74994 3.43808 2.74994L2.49963 2.74994C2.08542 2.74994 1.74963 2.41416 1.74963 1.99994ZM17.4996 19.7499C17.0854 19.7499 16.7496 20.0857 16.7496 20.4999C16.7496 20.9142 17.0854 21.2499 17.4996 21.2499C17.9138 21.2499 18.2496 20.9142 18.2496 20.4999C18.2496 20.0857 17.9138 19.7499 17.4996 19.7499ZM9.74963 20.4999C9.74963 20.0857 10.0854 19.7499 10.4996 19.7499C10.9138 19.7499 11.2496 20.0857 11.2496 20.4999C11.2496 20.9142 10.9138 21.2499 10.4996 21.2499C10.0854 21.2499 9.74963 20.9142 9.74963 20.4999ZM8.88364 15.25L8.87963 15.2499L8.60852 15.2499L6.9289 7.24995L19.3937 7.24995C19.9697 7.24995 20.3116 7.25219 20.5501 7.29006C20.6588 7.30731 20.7063 7.32686 20.7223 7.33504L20.7256 7.33679C20.7276 7.33951 20.7335 7.34927 20.7393 7.37904C20.7478 7.42198 20.7544 7.49926 20.7451 7.63395C20.7255 7.91942 20.649 8.3073 20.5254 8.92101C20.1031 11.0186 19.7471 12.5846 19.0155 13.6525C18.6666 14.1616 18.2355 14.5484 17.6611 14.8149C17.0781 15.0854 16.3087 15.25 15.2629 15.25L8.88364 15.25Z" fill="#B6B6B6"/>
</g>
</g>
</g>
</g>
</g>
</svg>
